<svg xmlns="http://www.w3.org/2000/svg" viewBox="0 0 598.97 670"><defs><style>.cls-1,.cls-3{fill:#fff;}.cls-2{fill:#eeab69;}.cls-3{stroke:#e89468;}.cls-3,.cls-4{stroke-miterlimit:10;}.cls-4{fill:#221f20;stroke:#fff;stroke-width:0.25px;}.cls-5{fill:none;stroke:#000;stroke-width:0.3px;}</style></defs><title>Asset 1</title><g id="Layer_2" data-name="Layer 2"><g id="Layer_1-2" data-name="Layer 1"><polyline class="cls-1" points="159.63 99.44 403.02 178.91 284.38 443.42 163.9 450.06 159.63 99.44"/><path class="cls-2" d="M159.63,99.44l1.46,71.13c1,.2,164.5-55.67,180.36,81.14C356.43,380.94,220,342.87,220,342.87l64.38,100.55s130.55,24.07,150.42-55c6.67-26.54,20.35-65.61-25.73-97.67,60.1-27,18.17-108.19,18.17-108.19S403.52,136.51,352,116.47C271.25,85.1,159.63,99.44,159.63,99.44Z"/><path class="cls-2" d="M163.9,226.17v57.1H272.36s29.08,2.12,29.05-27.56c0-32.14-32.32-29.54-32.32-29.54Z"/><polygon class="cls-2" points="163.9 339.87 185.94 382.94 226.35 447.56 163.9 448.06 163.9 339.87"/><path class="cls-3" d="M97.06,526.7v-.61a12,12,0,0,0,2.82-.79,6,6,0,0,0,2.21-1.57,2.41,2.41,0,0,0,.45-1,13.14,13.14,0,0,0,.24-1.57c.06-.61.1-1.24.12-1.91s0-1.32,0-2,0-1.33,0-2.3,0-2,.07-3.18,0-2.33,0-3.54v-17.5a18.39,18.39,0,0,0-.1-2,12.47,12.47,0,0,0-.27-1.69,2.86,2.86,0,0,0-.54-1.19,4.83,4.83,0,0,0-2.09-1.48,12.46,12.46,0,0,0-2.82-.63v-.61h18.11v.61a15.82,15.82,0,0,0-2.73.66,3.94,3.94,0,0,0-2.24,1.94,5.81,5.81,0,0,0-.57,2.6q0,1.57-.09,3t0,3c0,1,0,2,0,3v20.28q0,1.76.06,3.39a4.36,4.36,0,0,0,.54,2.3,4.55,4.55,0,0,0,2.3,1.58,12.52,12.52,0,0,0,2.85.66v.61Z"/><path class="cls-3" d="M166.06,484.86a5.3,5.3,0,0,0-2.09,2.6,10.48,10.48,0,0,0-.55,3.36c-.08,1.64-.16,3.38-.24,5.24s-.15,3.78-.21,6.14-.09,4.9-.09,7.6v3.88c0,1.41,0,2.86,0,4.33s0,2.93,0,4.39v3.93a.54.54,0,0,1-.15.4.61.61,0,0,1-.45.15,1.67,1.67,0,0,1-1.1-.61q-5.15-5.92-9.38-10.9l-8.09-9.47q-3.84-4.51-7.53-8.81t-7.81-8.9v25.55c0,2.06,0,3.92.15,5.57a10,10,0,0,0,.75,3.69,4.37,4.37,0,0,0,2.09,2.09,12.33,12.33,0,0,0,3.91,1v.61h-14.9v-.61a12,12,0,0,0,2.91-.75,4.77,4.77,0,0,0,2.3-1.91,8.24,8.24,0,0,0,1.09-3.76q.24-2.48.36-5.93.12-2.61.18-6.15c0-2.36.07-4.89.07-7.6v-7.38c0-.81,0-1.8-.07-3a7.1,7.1,0,0,0-.84-2.88,5.61,5.61,0,0,0-1.58-1.75,5.84,5.84,0,0,0-2-.91,16.76,16.76,0,0,0-2-.39v-.61h12.29l28.7,33.55V496.06c0-1.62,0-3.16-.06-4.63a10.73,10.73,0,0,0-.55-3.49,5.56,5.56,0,0,0-2.14-2.75,10.59,10.59,0,0,0-4.46-1.48v-.61h15v.61A9,9,0,0,0,166.06,484.86Z"/><path class="cls-3" d="M220.1,512.29a19.51,19.51,0,0,1-3,5.93,17.36,17.36,0,0,1-4.36,4.12,23.42,23.42,0,0,1-5.26,2.6,28.75,28.75,0,0,1-5.76,1.36,42.46,42.46,0,0,1-5.75.4H173.9v-.61a10.5,10.5,0,0,0,2.94-.79,5.75,5.75,0,0,0,2.15-1.45,2,2,0,0,0,.45-1c.1-.48.19-1,.27-1.63s.14-1.25.18-1.94.06-1.35.06-2,0-1.33,0-2.3,0-2,.07-3.18,0-2.33,0-3.54v-17.5a18.39,18.39,0,0,0-.1-2,11.08,11.08,0,0,0-.27-1.69,2.86,2.86,0,0,0-.54-1.19,4.85,4.85,0,0,0-2.18-1.51,14.31,14.31,0,0,0-2.85-.6v-.61l7.33,0q4.78,0,11.56,0h3.88c1.33,0,2.66.06,4,.18a32.35,32.35,0,0,1,4,.61,19.87,19.87,0,0,1,3.94,1.27,22.49,22.49,0,0,1,4.78,2.78,18.7,18.7,0,0,1,3.91,4,19.65,19.65,0,0,1,2.66,5.39,22.38,22.38,0,0,1,1,7A26.51,26.51,0,0,1,220.1,512.29Zm-7.45-14.72a21.66,21.66,0,0,0-3-6A19.42,19.42,0,0,0,205,487a14.25,14.25,0,0,0-5.81-2.43c-.81-.16-1.69-.29-2.66-.39A35.75,35.75,0,0,0,193,484l-1.57,0c-.57,0-1.12.06-1.67.12l-1.51.15a6.23,6.23,0,0,0-1.12.18q-.3,3-.36,8.18t-.06,12.41v7.08c0,2.1,0,3.82.06,5.15,0,.57,0,1.18.09,1.85s.13,1.31.21,1.94a8.07,8.07,0,0,0,.39,1.69,3,3,0,0,0,.64,1.12,5.64,5.64,0,0,0,3.06,1.55,19.81,19.81,0,0,0,3.48.33q1.51,0,3.12-.15a14.41,14.41,0,0,0,3-.58,16.06,16.06,0,0,0,9.78-7.29,25.64,25.64,0,0,0,3.24-13.35A21.77,21.77,0,0,0,212.65,497.57Z"/><path class="cls-3" d="M269.36,484.86a5.48,5.48,0,0,0-2,2.6,6.43,6.43,0,0,0-.33,1.39c-.1.65-.2,1.4-.28,2.24s-.14,1.75-.18,2.7-.06,1.89-.06,2.81q-.06,2.61-.15,5.82t-.21,7.26l-.15,2.91a19.29,19.29,0,0,1-.58,3.72,16.74,16.74,0,0,1-1.54,3.94,12.21,12.21,0,0,1-3,3.57,14.48,14.48,0,0,1-5,2.55,30.26,30.26,0,0,1-14.81,0,14.49,14.49,0,0,1-4.93-2.45,12,12,0,0,1-3-3.39,16.67,16.67,0,0,1-1.58-3.63,15.39,15.39,0,0,1-.6-3.27c-.06-1-.09-1.73-.09-2.21,0-1.13,0-2.61,0-4.42s0-3.84,0-6.06V490.73c0-.73,0-1.4-.09-2a12.47,12.47,0,0,0-.27-1.69,3,3,0,0,0-.55-1.19,4.83,4.83,0,0,0-2.09-1.48,12.37,12.37,0,0,0-2.81-.63l-9.75-19,27.79,19h0a18.21,18.21,0,0,0-1.82.36,5.5,5.5,0,0,0-1.75.76,4.14,4.14,0,0,0-1.33,1.42,4.73,4.73,0,0,0-.61,2.3c0,1.05-.07,2-.09,2.78s0,1.6,0,2.37v12.05c0,.93,0,1.82,0,2.69s0,1.79,0,2.76a18.8,18.8,0,0,0,1,5.84,13,13,0,0,0,2.54,4.48,11,11,0,0,0,4,2.85,13.81,13.81,0,0,0,5.39,1,19,19,0,0,0,5.84-.79,11.53,11.53,0,0,0,4-2.18,10.86,10.86,0,0,0,2.54-3.21,15.45,15.45,0,0,0,1.39-3.88,27.78,27.78,0,0,0,.61-4.2c.1-1.44.15-2.84.15-4.21V496.6c0-.8,0-1.63,0-2.48s-.05-1.65-.09-2.42-.1-1.49-.18-2.15a19.56,19.56,0,0,0-.77-2.74c-.4-1.13-.7-.91-1.69-1.62s-4.67-.62-6.61-.9h0l24.44-20.7-7.2,20.12A8.52,8.52,0,0,0,269.36,484.86Z"/><path class="cls-3" d="M306.11,520a11.64,11.64,0,0,1-3.27,3.93,13.74,13.74,0,0,1-5,2.42,24.08,24.08,0,0,1-6.36.79,30.76,30.76,0,0,1-5.08-.36,20.19,20.19,0,0,1-3.52-.88,12.82,12.82,0,0,1-2.09-.94,2.68,2.68,0,0,0-.87-.42c-.12,0-.39.24-.79.72s-.77,1-1.09,1.4h-.55l-.18-12h.61a18.59,18.59,0,0,0,1.39,3.18,25.6,25.6,0,0,0,1.85,2.9,15.5,15.5,0,0,0,2.12,2.39,10.4,10.4,0,0,0,2.15,1.58,16.94,16.94,0,0,0,2.72,1.09,10.76,10.76,0,0,0,3.27.54,10.58,10.58,0,0,0,7.27-2.45,8.39,8.39,0,0,0,2.78-6.63,7.57,7.57,0,0,0-.54-3,7.17,7.17,0,0,0-1.49-2.21,8.89,8.89,0,0,0-2.21-1.6,21.89,21.89,0,0,0-2.72-1.21c-1-.37-1.82-.67-2.54-.91s-1.41-.47-2-.7l-1.94-.66c-.67-.22-1.46-.52-2.39-.88a12.92,12.92,0,0,1-3-1.67,12,12,0,0,1-2.54-2.48,12.75,12.75,0,0,1-1.76-3.15,10.16,10.16,0,0,1-.67-3.66,12.28,12.28,0,0,1,1.2-5.63,11.57,11.57,0,0,1,3.21-3.94,13.56,13.56,0,0,1,4.65-2.33,20.09,20.09,0,0,1,5.54-.75,20.83,20.83,0,0,1,4.66.45,18,18,0,0,1,3.18,1,10.36,10.36,0,0,1,1.88,1,4.19,4.19,0,0,0,.69.45c.12,0,.38-.24.76-.73s.74-1,1.06-1.45h.67v11.2h-.67a24.53,24.53,0,0,0-1.88-4,18.07,18.07,0,0,0-2.66-3.52,13.17,13.17,0,0,0-3.45-2.51,9.6,9.6,0,0,0-4.3-1,11.12,11.12,0,0,0-3.54.55,8.22,8.22,0,0,0-2.91,1.63,7.6,7.6,0,0,0-1.94,2.7,9.19,9.19,0,0,0-.69,3.66,7,7,0,0,0,1.93,5.15,13.85,13.85,0,0,0,5,3.09c.8.32,1.56.6,2.27.84s1.39.48,2.08.7l2.08.7c.71.24,1.44.5,2.21.78a14.1,14.1,0,0,1,6.37,4.39A12.28,12.28,0,0,1,306.11,520Z"/><path class="cls-3" d="M355,494.48c-.32-.72-.71-1.48-1.15-2.27s-.9-1.52-1.36-2.21-.92-1.32-1.37-1.9a8.67,8.67,0,0,0-1.15-1.31,6.32,6.32,0,0,0-2.75-1.6,17,17,0,0,0-3.79-.45c-.76,0-1.43,0-2,0l-1.7,0h-4c0,1,0,2.38,0,4.11s0,3.56,0,5.45v23.68q0,1.76.09,3.36a4.46,4.46,0,0,0,.58,2.27,4.54,4.54,0,0,0,2.57,1.82,30.34,30.34,0,0,0,3,.72v.61H322.25v-.61a18.47,18.47,0,0,0,3-.6,6.24,6.24,0,0,0,2.84-2,1.94,1.94,0,0,0,.46-1,14.38,14.38,0,0,0,.24-1.58c.06-.58.1-1.22.12-1.9s0-1.35,0-2,0-1.31,0-2.24,0-2,.06-3.09,0-2.3,0-3.51V484.68h-4l-1.67,0c-.58,0-1.26,0-2,0a13.68,13.68,0,0,0-3.78.54,7.22,7.22,0,0,0-2.76,1.7,8.62,8.62,0,0,0-1.12,1.27c-.42.56-.87,1.18-1.33,1.84s-.91,1.39-1.33,2.15a13.94,13.94,0,0,0-1,2.24l-.54-.18,1.81-11.5c.93.2,1.79.36,2.57.48a29.77,29.77,0,0,0,3.43.24q2.29.08,4.11.09c1.21,0,2.39,0,3.52,0h11.5c1.21,0,2.38,0,3.51,0l3.52-.05c1.21,0,2.58,0,4.11,0a19.65,19.65,0,0,0,3.3-.33c.87-.18,1.77-.41,2.7-.7l1.93,11.81Z"/><path class="cls-3" d="M390.61,526.7l-.79-.82c-.16-.18-.34-.39-.54-.64a12.45,12.45,0,0,1-.76-1.06c-.3-.46-.77-1.16-1.42-2.08-.77-1.13-1.44-2.15-2-3.06s-1.18-1.81-1.78-2.7-1.27-1.78-2-2.69-1.55-1.93-2.51-3.06a24,24,0,0,0-2.64-2.6,6.59,6.59,0,0,0-3-1.52,9.27,9.27,0,0,0-1.75-.24c-.36,0-.83,0-1.39-.06V513c0,1.94,0,3.58.06,4.91s.08,2.4.12,3.33a4.46,4.46,0,0,0,.66,2.3,5.4,5.4,0,0,0,1.88,1.6,8.46,8.46,0,0,0,3.88.94v.61H357.25v-.61a17.19,17.19,0,0,0,2.91-.72,4.83,4.83,0,0,0,2.18-1.46,2.71,2.71,0,0,0,.48-1.09,11.53,11.53,0,0,0,.27-1.63c.06-.61.11-1.25.15-1.94s.06-1.35.06-2,0-1.33,0-2.3,0-2,.06-3.18,0-2.33,0-3.54V492.91c0-.73,0-1.46,0-2.21s-.06-1.45-.12-2.12a11.52,11.52,0,0,0-.3-1.82,2.59,2.59,0,0,0-.57-1.18,4.64,4.64,0,0,0-2-1.3,20.63,20.63,0,0,0-2.76-.57v-.61h2.49l4.66,0c1.73,0,3.47,0,5.21,0h4.23q4.07,0,7.21.24a14.35,14.35,0,0,1,5.75,1.64,11.66,11.66,0,0,1,4.3,3.78,10.48,10.48,0,0,1,1.64,6,9.62,9.62,0,0,1-.82,4,10.83,10.83,0,0,1-2.18,3.15,13.18,13.18,0,0,1-3.18,2.33,24.55,24.55,0,0,1-3.82,1.64v.18a7.66,7.66,0,0,1,2,1.57,23.37,23.37,0,0,1,1.88,2.3c1,1.54,2.19,3.19,3.42,5s2.33,3.35,3.3,4.72a18.62,18.62,0,0,0,4.36,4.61,11.76,11.76,0,0,0,5,1.87v.61Zm-6-37.73a10.47,10.47,0,0,0-4.42-3.75,13.31,13.31,0,0,0-3.06-1,18.26,18.26,0,0,0-3.36-.3c-.85,0-1.53,0-2.06.06s-.93.08-1.21.12c0,.24-.08.45-.12.64a4.88,4.88,0,0,0-.09.69c0,.28,0,.68-.06,1.18s-.05,1.22-.09,2.15c0,1.42-.08,3-.09,4.79s0,3.49,0,5.14v6.66c1.65,0,3.19-.07,4.63-.21a18.69,18.69,0,0,0,4.15-.88,11,11,0,0,0,3.33-1.63,9.81,9.81,0,0,0,2.27-2.33,10,10,0,0,0,1.3-2.82,11.74,11.74,0,0,0,.42-3.15A9.8,9.8,0,0,0,384.62,489Z"/><path class="cls-3" d="M403.69,526.7v-.61a12,12,0,0,0,2.82-.79,5.92,5.92,0,0,0,2.21-1.57,2.41,2.41,0,0,0,.45-1,15.31,15.31,0,0,0,.25-1.57c.05-.61.09-1.24.12-1.91s0-1.32,0-2,0-1.33,0-2.3,0-2,.06-3.18,0-2.33,0-3.54v-17.5c0-.73,0-1.4-.09-2a12.4,12.4,0,0,0-.28-1.69,2.86,2.86,0,0,0-.54-1.19,4.83,4.83,0,0,0-2.09-1.48,12.46,12.46,0,0,0-2.82-.63v-.61H422v.61a15.82,15.82,0,0,0-2.73.66,4,4,0,0,0-2.24,1.94,5.81,5.81,0,0,0-.57,2.6q0,1.57-.09,3t0,3q0,1.49,0,3v20.28q0,1.76.06,3.39a4.36,4.36,0,0,0,.54,2.3,4.55,4.55,0,0,0,2.3,1.58,12.52,12.52,0,0,0,2.85.66v.61Z"/><path class="cls-3" d="M464.61,526.7H427.55v-.61a11.74,11.74,0,0,0,2.81-.79,5.61,5.61,0,0,0,2.15-1.51,2.55,2.55,0,0,0,.49-1.06c.12-.46.23-1,.33-1.6a18.6,18.6,0,0,0,.21-1.91c0-.67.06-1.32.06-2s0-1.33,0-2.3,0-2,.06-3.18,0-2.33,0-3.54V492.91c0-.73,0-1.47,0-2.24s-.06-1.49-.12-2.18a11.54,11.54,0,0,0-.3-1.85,2.59,2.59,0,0,0-.57-1.18,4.22,4.22,0,0,0-1.94-1.24,25.73,25.73,0,0,0-2.67-.51v-.61h33.43l4.12,10-.61.3q-4.9-6.11-9.2-8.23a14.72,14.72,0,0,0-3.82-.85,54.12,54.12,0,0,0-6.78-.36c-.85,0-1.73,0-2.63.09a17.06,17.06,0,0,0-2,.21c-.08.65-.15,2-.21,4s-.09,4.36-.09,7v3.88c0,1.05,0,1.9,0,2.57s0,1.18,0,1.54v.67h1.22c.6,0,1.3,0,2.09-.06l2.36-.15a13.64,13.64,0,0,0,2-.27,10.84,10.84,0,0,0,3-1.15,6.6,6.6,0,0,0,2-1.76,8.52,8.52,0,0,0,1.21-2.39,29.07,29.07,0,0,0,.82-3.06h.73v19.07H455a20.78,20.78,0,0,0-1.48-4,10.79,10.79,0,0,0-2.09-3.09,7.93,7.93,0,0,0-2.34-1.39A10.09,10.09,0,0,0,446,505l-1.52-.09c-.4,0-.8,0-1.21,0h-2.78a17.46,17.46,0,0,0-.12,2.48v7.27c0,.64,0,1.26,0,1.85s0,1.08,0,1.48c0,1.29.12,2.51.22,3.66a5.89,5.89,0,0,0,.69,2.58,3.89,3.89,0,0,0,2.61,1.21,26,26,0,0,0,4.48.36c.69,0,1.56,0,2.63-.06s2.19-.14,3.36-.3a13.73,13.73,0,0,0,3.58-.94,12.86,12.86,0,0,0,3.15-2A20.61,20.61,0,0,0,464,519.4,40.91,40.91,0,0,0,467,515l.66.18Z"/><path class="cls-3" d="M500.72,520a11.64,11.64,0,0,1-3.27,3.93,13.74,13.74,0,0,1-5,2.42,24.08,24.08,0,0,1-6.36.79,30.76,30.76,0,0,1-5.08-.36,20.19,20.19,0,0,1-3.52-.88,12.82,12.82,0,0,1-2.09-.94,2.68,2.68,0,0,0-.87-.42c-.12,0-.39.24-.79.72s-.77,1-1.09,1.4h-.55l-.18-12h.61a19.41,19.41,0,0,0,1.39,3.18,25.6,25.6,0,0,0,1.85,2.9,15.5,15.5,0,0,0,2.12,2.39,10.4,10.4,0,0,0,2.15,1.58,16.94,16.94,0,0,0,2.72,1.09,10.76,10.76,0,0,0,3.27.54,10.58,10.58,0,0,0,7.27-2.45,8.39,8.39,0,0,0,2.78-6.63,7.57,7.57,0,0,0-.54-3,7.15,7.15,0,0,0-1.48-2.21,9.14,9.14,0,0,0-2.22-1.6,21.89,21.89,0,0,0-2.72-1.21c-1-.37-1.82-.67-2.54-.91s-1.41-.47-2-.7l-1.94-.66c-.67-.22-1.46-.52-2.39-.88a12.92,12.92,0,0,1-3-1.67,12,12,0,0,1-2.54-2.48,12.75,12.75,0,0,1-1.76-3.15,10.16,10.16,0,0,1-.67-3.66,12.28,12.28,0,0,1,1.2-5.63,11.57,11.57,0,0,1,3.21-3.94,13.56,13.56,0,0,1,4.65-2.33,20.09,20.09,0,0,1,5.54-.75,20.83,20.83,0,0,1,4.66.45,18,18,0,0,1,3.18,1,10.36,10.36,0,0,1,1.88,1,4.19,4.19,0,0,0,.69.45c.12,0,.38-.24.76-.73s.74-1,1.06-1.45h.67v11.2h-.67a24.53,24.53,0,0,0-1.88-4,18.07,18.07,0,0,0-2.66-3.52,13.17,13.17,0,0,0-3.45-2.51,9.6,9.6,0,0,0-4.3-1,11.12,11.12,0,0,0-3.54.55,8.31,8.31,0,0,0-2.91,1.63,7.6,7.6,0,0,0-1.94,2.7,9.19,9.19,0,0,0-.69,3.66,7,7,0,0,0,1.93,5.15,13.85,13.85,0,0,0,5,3.09c.81.32,1.56.6,2.27.84s1.39.48,2.08.7l2.08.7c.71.24,1.44.5,2.21.78a14.1,14.1,0,0,1,6.37,4.39A12.28,12.28,0,0,1,500.72,520Z"/><line class="cls-3" x1="158.64" y1="546.23" x2="442.97" y2="546.23"/><path class="cls-4" d="M172.2,559a7.05,7.05,0,0,1,1.13-2.32,5.78,5.78,0,0,1,4.91-2.37,4.7,4.7,0,0,1,1.89.39,4.21,4.21,0,0,1,1.57,1.2,6.13,6.13,0,0,1,1.08,2.07,10.11,10.11,0,0,1,.39,3,7.75,7.75,0,0,1-.51,2.91A6.38,6.38,0,0,1,181.3,566a5.67,5.67,0,0,1-1.93,1.3,5.79,5.79,0,0,1-2.25.45,4.7,4.7,0,0,1-1.87-.4,4.92,4.92,0,0,1-1.7-1.18,6,6,0,0,1-1.22-2,7.1,7.1,0,0,1-.48-2.72A9.52,9.52,0,0,1,172.2,559Zm1.62,3.39a6,6,0,0,0,.64,1.69,4.82,4.82,0,0,0,1.26,1.45,3.18,3.18,0,0,0,2,.63,4.22,4.22,0,0,0,1.18-.2,3.22,3.22,0,0,0,1.23-.75,4.24,4.24,0,0,0,1-1.51,6.58,6.58,0,0,0,.39-2.45,8.75,8.75,0,0,0-.33-2.6,4.72,4.72,0,0,0-.84-1.68,3.17,3.17,0,0,0-1.2-.92,3.55,3.55,0,0,0-1.4-.29,3.49,3.49,0,0,0-1.74.44,4,4,0,0,0-1.3,1.15,5.56,5.56,0,0,0-.8,1.7,7.63,7.63,0,0,0-.27,2.05A7.46,7.46,0,0,0,173.82,562.36Z"/><path class="cls-4" d="M191.28,552.92a5,5,0,0,1,.62,0,5.55,5.55,0,0,1,1.76.27,5.49,5.49,0,0,1,1.41.72,3.61,3.61,0,0,1,.94,1,2,2,0,0,1,.35,1.13,3.4,3.4,0,0,1-.3,1.53,3.21,3.21,0,0,1-.75,1.06,4.31,4.31,0,0,1-1,.69,8.2,8.2,0,0,1-1,.41c-.4.13-.64.22-.73.26s-.12.09-.12.14.06.11.2.17.42.24.87.53l1.6,1,2,1.32c.53.35,1.07.69,1.61,1l1.54,1c.49.32.95.6,1.36.85l1,.62a4.15,4.15,0,0,0,2,.57.28.28,0,0,1,.19.1.41.41,0,0,1,.09.28.75.75,0,0,1-.22.37,4.71,4.71,0,0,1-.5.5,5.46,5.46,0,0,1-.57.44.92.92,0,0,1-.44.18,3,3,0,0,1-1.12-.54q-.84-.56-2-1.38c-.77-.54-1.61-1.15-2.51-1.82s-1.8-1.28-2.68-1.87-1.71-1.08-2.48-1.52a7.39,7.39,0,0,0-1.91-.8c0,.34-.06.71-.08,1.11s0,.81,0,1.21v.68c0,.68,0,1.24,0,1.67s0,.78.07,1.06,0,.49.07.66a2.42,2.42,0,0,1,0,.45.42.42,0,0,1-.13.35,1,1,0,0,1-.49.1,2.8,2.8,0,0,1-.47-.07,5.66,5.66,0,0,1-.59-.15,1.7,1.7,0,0,1-.49-.22.38.38,0,0,1-.2-.29.63.63,0,0,1,.07-.25l.15-.33a4.41,4.41,0,0,0,.17-.54,3.43,3.43,0,0,0,.11-.8q0-.19,0-1c0-.5,0-1.1.06-1.78s.05-1.4.06-2.16,0-1.45,0-2.08c0-.28,0-.64,0-1.07s0-.86-.05-1.28-.06-.8-.1-1.13-.1-.51-.17-.56a.86.86,0,0,1-.52-.75c0-.21.17-.36.5-.44l2.17-.58Zm-.64,6.6a.41.41,0,0,0,.19.05,1.09,1.09,0,0,0,.4-.13l.92-.42.49-.22a4.39,4.39,0,0,0,.53-.32,2.59,2.59,0,0,0,.5-.44,2.36,2.36,0,0,0,.38-.64,5.31,5.31,0,0,0,.27-1.67,1.35,1.35,0,0,0-.11-.57,3.78,3.78,0,0,0-.26-.43.84.84,0,0,0-.23-.17,2.83,2.83,0,0,0-.39-.19l-.39-.14a1.58,1.58,0,0,0-.29-.05l-.37,0a5,5,0,0,0-.56.11,2.86,2.86,0,0,0-.52.18c-.15.07-.23.14-.25.22a11.14,11.14,0,0,0-.19,1.24c-.06.44-.1.87-.13,1.29s-.06.82-.06,1.17,0,.64,0,.84S190.58,559.49,190.64,559.52Z"/><path class="cls-4" d="M205.75,558.5c0-.5,0-1,0-1.4a4.89,4.89,0,0,0,0-.58.8.8,0,0,0-.18-.42,1.88,1.88,0,0,1-.33-.48,1,1,0,0,1-.09-.41.85.85,0,0,1,.23-.43,4.25,4.25,0,0,1,.52-.52,4.93,4.93,0,0,1,.61-.44,1.09,1.09,0,0,1,.49-.18,1.23,1.23,0,0,1,.62.21c.23.14.35.26.35.36a1.92,1.92,0,0,1-.11.61,2.56,2.56,0,0,0-.14.74c-.07.73-.12,2-.16,3.67s-.07,4.08-.07,7.07a6.86,6.86,0,0,1-.18,2,.64.64,0,0,1-.61.49.83.83,0,0,1-.32-.06.53.53,0,0,1-.23-.31,3.05,3.05,0,0,1-.16-.77,13.87,13.87,0,0,1-.09-1.42c0-.6,0-1.37,0-2.29s0-2,0-3.35C205.79,559.69,205.78,559,205.75,558.5Z"/><path class="cls-4" d="M222.42,563.14a1.61,1.61,0,0,1,.72-.11.58.58,0,0,1,.25.05.43.43,0,0,1,.16.27,2.79,2.79,0,0,1,.08.64c0,.3,0,.71,0,1.24,0,1.11,0,2,.11,2.7a15.71,15.71,0,0,1,.12,1.76.73.73,0,0,1-.14.5.82.82,0,0,1-.59.15.41.41,0,0,1-.25-.07,1,1,0,0,1-.2-.29,3.9,3.9,0,0,1-.18-.61c-.06-.27-.12-.62-.19-1a.69.69,0,0,0-.75-.65l-.36.05c-.17,0-.38.07-.61.1l-.75.1a4.89,4.89,0,0,1-.75.05,5.49,5.49,0,0,1-2.83-.65,5.37,5.37,0,0,1-1.75-1.58,5.94,5.94,0,0,1-.92-2,7.56,7.56,0,0,1-.26-1.79,9.86,9.86,0,0,1,.48-3,7.45,7.45,0,0,1,1.48-2.67,7.67,7.67,0,0,1,2.56-1.91,8.52,8.52,0,0,1,3.69-.73,5.87,5.87,0,0,1,2.17.31,1,1,0,0,1,.74,1,.56.56,0,0,1-.15.36,1.52,1.52,0,0,1-.34.33,3.24,3.24,0,0,1-.4.22.86.86,0,0,1-.33.09.61.61,0,0,1-.36-.15l-.73-.65a1.4,1.4,0,0,0-.48-.29,2.15,2.15,0,0,0-.55-.06,4,4,0,0,0-2.3.74,7.65,7.65,0,0,0-1.91,1.86,9.43,9.43,0,0,0-1.3,2.45,7.7,7.7,0,0,0-.47,2.53,6.77,6.77,0,0,0,.29,2.2,3.06,3.06,0,0,0,.79,1.31,2.91,2.91,0,0,0,1.19.63,5.57,5.57,0,0,0,1.44.17,4.43,4.43,0,0,0,1.24-.16,3.59,3.59,0,0,0,1-.41,2.25,2.25,0,0,0,.65-.55,1.39,1.39,0,0,0,.29-.6l.19-1.49A.46.46,0,0,1,222.42,563.14Z"/><path class="cls-4" d="M229.76,558.5c0-.5,0-1,0-1.4a4.62,4.62,0,0,0,0-.58.78.78,0,0,0-.17-.42,1.72,1.72,0,0,1-.34-.48,1,1,0,0,1-.09-.41.85.85,0,0,1,.23-.43,4.25,4.25,0,0,1,.52-.52,4.93,4.93,0,0,1,.61-.44,1.09,1.09,0,0,1,.49-.18,1.23,1.23,0,0,1,.62.21c.23.14.35.26.35.36a1.92,1.92,0,0,1-.11.61,2.56,2.56,0,0,0-.14.74c-.07.73-.12,2-.16,3.67s-.06,4.08-.06,7.07a6.74,6.74,0,0,1-.19,2,.64.64,0,0,1-.61.49.75.75,0,0,1-.31-.06.58.58,0,0,1-.24-.31,3.05,3.05,0,0,1-.16-.77c0-.33-.07-.81-.09-1.42s0-1.37,0-2.29,0-2,0-3.35C229.8,559.69,229.79,559,229.76,558.5Z"/><path class="cls-4" d="M238.61,558.16c0-.31,0-.62,0-.93a1.79,1.79,0,0,0-.34-1.23,1.91,1.91,0,0,0-.75-.53l-.75-.29a.45.45,0,0,1-.33-.45c0-.11.09-.24.27-.37l.9-.72a1.06,1.06,0,0,1,.34-.23.8.8,0,0,1,.26,0,.55.55,0,0,1,.29.09,1.53,1.53,0,0,1,.33.34q1.44,1.71,3,3.44c1,1.14,2,2.19,2.83,3.14s1.63,1.75,2.27,2.42,1.07,1.09,1.31,1.29c.13-.85.22-1.66.28-2.43s.09-1.57.09-2.38a16.38,16.38,0,0,0-.08-1.69c0-.49-.09-.89-.15-1.23a6.17,6.17,0,0,0-.14-.79,2.15,2.15,0,0,1-.08-.48.52.52,0,0,1,.21-.36,1.46,1.46,0,0,1,.47-.21,3.39,3.39,0,0,1,.57-.1l.55,0a.5.5,0,0,1,.47.22,1,1,0,0,1,.13.48,4.79,4.79,0,0,1-.13.82c-.08.39-.17.9-.27,1.55s-.2,1.46-.28,2.43-.12,2.14-.12,3.5c0,.42,0,.87,0,1.34s0,1,0,1.51a.9.9,0,0,1-.23.53,3.64,3.64,0,0,1-.51.53,4.53,4.53,0,0,1-.56.4,1.14,1.14,0,0,1-.37.16c-.09,0-.16-.09-.22-.28s-.12-.41-.21-.7a6.78,6.78,0,0,0-.36-.94,4.51,4.51,0,0,0-.69-1c-.64-.76-1.31-1.52-2-2.26l-2-2.07c-.6-.64-1.15-1.2-1.64-1.7s-.86-.89-1.11-1.18c0,.7-.09,1.42-.13,2.16s0,1.46-.06,2.16,0,1.35,0,2,0,1.11,0,1.53,0,.73,0,1.11,0,.66,0,.86a1.24,1.24,0,0,1-.08.41.51.51,0,0,1-.37.29l-.91.22a2.45,2.45,0,0,1-.58.08c-.32,0-.47-.12-.47-.35a.69.69,0,0,1,.12-.39c.08-.12.18-.28.29-.47a4.09,4.09,0,0,0,.31-.76,5.83,5.83,0,0,0,.2-1.23l.3-6.15C238.59,558.78,238.61,558.47,238.61,558.16Z"/><path class="cls-4" d="M257.75,564.52a2,2,0,0,0-.82.86l-1.25,2.17a1.36,1.36,0,0,0-.15.47c0,.17-.14.25-.37.25a3.4,3.4,0,0,1-1.12-.15c-.29-.1-.43-.24-.43-.42a.7.7,0,0,1,.25-.48,5.41,5.41,0,0,0,.57-.67c.3-.38.64-.84,1-1.37s.73-1.09,1.1-1.67.72-1.17,1.07-1.76.66-1.13.92-1.63.48-.94.65-1.31a2.34,2.34,0,0,0,.25-.79c0-.33-.28-.78-.85-1.34l-2-2.07a2.9,2.9,0,0,0-.6-.53c-.17-.1-.25-.21-.25-.34s.06-.15.19-.24.27-.18.43-.28a3.43,3.43,0,0,1,.52-.23,1.18,1.18,0,0,1,.43-.1l.55,0a.92.92,0,0,1,.34.12.58.58,0,0,1,.22.26,4.71,4.71,0,0,1,.21.47,2.61,2.61,0,0,0,.31.5l.54.7q2,2.44,3.49,4.11c1,1.11,1.88,2.09,2.68,2.93s1.58,1.6,2.32,2.28,1.55,1.42,2.43,2.2a1.44,1.44,0,0,0,.48.3l.38.12a.59.59,0,0,1,.26.14.39.39,0,0,1,.1.31.52.52,0,0,1-.13.28,3,3,0,0,1-.34.38,2.7,2.7,0,0,1-.4.31.72.72,0,0,1-.35.13h-.75a.27.27,0,0,1-.27-.18,1.32,1.32,0,0,0-.2-.32,39.81,39.81,0,0,0-3.34-3.67h-6.61A3.27,3.27,0,0,0,257.75,564.52Zm1.22-2.73-.42.75a.56.56,0,0,0-.1.3.23.23,0,0,0,.06.16.55.55,0,0,0,.31.08c.17,0,.42,0,.75,0l1.4,0,1.62,0,1,0a3.48,3.48,0,0,0,.6-.06,1,1,0,0,0,.3-.08l-3.91-4Z"/><path class="cls-4" d="M282.78,566.36a1.27,1.27,0,0,1,.63-.21q.42,0,.42.33a2.47,2.47,0,0,1-.06.36,4,4,0,0,1-.18.6,3.64,3.64,0,0,1-.25.57c-.09.17-.18.26-.28.26a1.31,1.31,0,0,1-.41-.06l-.56-.19-.18,0-.42,0-.81,0H278l-.81,0a2,2,0,0,0-.44,0,.69.69,0,0,0-.23.09,1.73,1.73,0,0,1-.78.17.46.46,0,0,1-.31-.17,4.08,4.08,0,0,1-.31-.39,2.25,2.25,0,0,1-.24-.42.84.84,0,0,1-.08-.29.73.73,0,0,1,.24-.46,1,1,0,0,0,.25-.74c0-.26,0-.59,0-1s0-.83,0-1.35V560a28,28,0,0,0-.12-2.91c-.09-.72-.17-1.28-.26-1.69a3.86,3.86,0,0,0-.27-.85.93.93,0,0,1-.12-.39c0-.08.08-.2.24-.37a4.44,4.44,0,0,1,.55-.49,6,6,0,0,1,.62-.41.8.8,0,0,1,1,0,.49.49,0,0,1,.33.44,2.08,2.08,0,0,1-.1.54,2.24,2.24,0,0,0-.1.68c0,.75,0,1.49-.08,2.22s-.07,1.44-.07,2.14c0,.47,0,.9,0,1.31s0,.89,0,1.43,0,1-.05,1.59-.07,1-.1,1.51-.07.87-.1,1.22-.05.6-.05.74.1.2.3.2a.82.82,0,0,0,.26,0,.78.78,0,0,1,.31-.05l4.52-.18A1.47,1.47,0,0,0,282.78,566.36Z"/><path class="cls-4" d="M293.7,548.45h1v24.93h-1Z"/><path class="cls-4" d="M308.47,563a2,2,0,0,0-.57.09.76.76,0,0,0-.34.24,1.8,1.8,0,0,0-.22.46,6.12,6.12,0,0,1-.39.9l-.52,1-.47,1a3.19,3.19,0,0,0-.26.66,1.51,1.51,0,0,1-.19.56.44.44,0,0,1-.29.17l-.58.06-.67.06-.57,0h-.3a.19.19,0,0,1-.18-.14.51.51,0,0,1-.07-.26,1,1,0,0,1,.07-.46.37.37,0,0,1,.23-.16,2.75,2.75,0,0,0,.76-.36,1.92,1.92,0,0,0,.64-.94,7.25,7.25,0,0,1,.43-.88l.94-1.72,1.18-2.2c.43-.79.82-1.56,1.18-2.32s.65-1.45.88-2.1a5,5,0,0,0,.35-1.55.76.76,0,0,0-.05-.21l-.11-.31-.11-.31a.55.55,0,0,1-.05-.22.39.39,0,0,1,.16-.27,2.49,2.49,0,0,1,.83-.51,1,1,0,0,1,.35-.09c.1,0,.26.11.46.31a2.57,2.57,0,0,1,.51.74q.86,1.8,1.8,3.84t2.37,4.54c.6,1,1.1,1.88,1.51,2.49s.73,1.08,1,1.41.43.54.54.66.16.2.16.25a.35.35,0,0,1-.19.36.85.85,0,0,1-.38.09l-.43,0c-.18,0-.37,0-.57-.07l-.56-.1-.39-.1a.58.58,0,0,1-.37-.31,2.62,2.62,0,0,1-.25-.59c-.05-.15-.16-.4-.31-.76s-.33-.72-.51-1.08-.36-.7-.53-1a1.46,1.46,0,0,0-.37-.49,3.32,3.32,0,0,0-.85-.21c-.4-.06-.83-.1-1.3-.14l-1.37-.06h-2Zm2.91-5a5.12,5.12,0,0,1-.39-.89c-.05-.2-.14-.31-.26-.31s-.09,0-.14.11a2.13,2.13,0,0,0-.12.29c0,.12-.08.23-.11.35a1.93,1.93,0,0,1-.13.32l-1.29,2.65-.4.81a.79.79,0,0,0-.13.36c0,.11.14.17.43.17h4.51Z"/><path class="cls-4" d="M322.44,553.61c.07-.17.23-.25.48-.25a1.36,1.36,0,0,1,.51.15,5.59,5.59,0,0,1,.68.36,4.69,4.69,0,0,1,.6.45.67.67,0,0,1,.26.44.78.78,0,0,1-.14.41,3,3,0,0,0-.29.69,11.08,11.08,0,0,0-.28,1.34,16.34,16.34,0,0,0-.14,2.39q0,1.6.09,2.79a6.17,6.17,0,0,0,.51,2.1,2.11,2.11,0,0,0,.6.81,5.34,5.34,0,0,0,.93.69,5,5,0,0,0,1.06.47,3.26,3.26,0,0,0,1,.18,2.85,2.85,0,0,0,1.62-.45,3.76,3.76,0,0,0,1.12-1.19,6.39,6.39,0,0,0,.71-1.66,13.06,13.06,0,0,0,.39-1.88c.08-.64.14-1.26.16-1.86s0-1.12,0-1.57,0-1.09-.05-1.49-.07-.73-.1-1-.07-.44-.1-.58a1.09,1.09,0,0,1-.05-.32.45.45,0,0,1,.27-.45,1.72,1.72,0,0,1,.68-.13,1.8,1.8,0,0,1,.86.22.68.68,0,0,1,.38.63c0,.2,0,.54-.07,1s-.11,1-.19,1.62-.16,1.25-.26,1.94-.2,1.33-.31,2-.22,1.19-.34,1.7a8.73,8.73,0,0,1-.32,1.16,5.59,5.59,0,0,1-1.69,2.33,8.58,8.58,0,0,1-2.15,1.28,2.27,2.27,0,0,1-.53.13l-.49,0a5.12,5.12,0,0,1-1.15-.15,7.23,7.23,0,0,1-1.29-.43,5.87,5.87,0,0,1-1.18-.71,2.9,2.9,0,0,1-.82-.95,6.29,6.29,0,0,1-.51-1.71,25.58,25.58,0,0,1-.35-2.66c-.09-1-.16-2.12-.2-3.32s-.06-2.44-.06-3.71A2.08,2.08,0,0,1,322.44,553.61Z"/><path class="cls-4" d="M338.27,555.8a3.91,3.91,0,0,1-.49,0,.48.48,0,0,1-.45-.31,1.46,1.46,0,0,1-.15-.64.75.75,0,0,1,.27-.47.72.72,0,0,1,.48-.28l.65,0,.91.06,1.28.08q.75,0,1.8,0c.91,0,1.83,0,2.74-.1s1.83-.1,2.74-.1c.26,0,.38.12.38.35a.56.56,0,0,1-.11.27,3.8,3.8,0,0,1-.28.33,1.69,1.69,0,0,1-.36.3,1.11,1.11,0,0,1-.37.15c-.25,0-.54.06-.86.07l-1,.06-1,0h-.8c-.08.48-.15,1-.21,1.58s-.11,1.23-.15,2-.07,1.56-.1,2.48,0,2,0,3.16a3.47,3.47,0,0,0,.1.78,2,2,0,0,0,.34.7,1.72,1.72,0,0,0,.66.51,2.55,2.55,0,0,0,1.07.2,2.64,2.64,0,0,0,.44,0l.39,0a.2.2,0,0,1,.21.18,2.24,2.24,0,0,1,0,.34.71.71,0,0,1-.22.57,3,3,0,0,1-.76.38,2.72,2.72,0,0,1-.86.17,3.13,3.13,0,0,1-1.33-.27,3.25,3.25,0,0,1-1-.72,3.06,3.06,0,0,1-.65-.94,2.4,2.4,0,0,1-.23-1,3.61,3.61,0,0,1,.07-.65c0-.27.08-.61.12-1.05s.08-1,.12-1.59.07-1.39.07-2.27,0-1.48,0-2.2-.06-1.44-.15-2.19h-2.84Z"/><path class="cls-4" d="M353.09,568.27a.39.39,0,0,1-.37-.16.85.85,0,0,1-.1-.46c0-.87,0-1.76.07-2.7s.08-1.92.08-3v-1.45c0-.51,0-1,0-1.52s0-1,0-1.39,0-.81-.05-1.13a.86.86,0,0,0-.16-.51,2.22,2.22,0,0,0-.38-.37l-.37-.31a.46.46,0,0,1-.16-.35.49.49,0,0,1,.11-.25,1.59,1.59,0,0,1,.3-.36,2.08,2.08,0,0,1,.43-.34,1,1,0,0,1,.53-.15,1.84,1.84,0,0,1,.55.1,6.62,6.62,0,0,1,.62.24,3,3,0,0,1,.51.28c.14.1.21.19.21.28a1.74,1.74,0,0,1-.19.65,3,3,0,0,0-.21,1c0,.6,0,1.22,0,1.87s0,1.28-.06,1.89H361c0-.33,0-.7,0-1.12s0-.84,0-1.27,0-1.11-.07-1.6-.08-.84-.08-1.07.08-.22.25-.32a2.69,2.69,0,0,1,.59-.26,4,4,0,0,1,.68-.18,3.56,3.56,0,0,1,.58-.06c.33,0,.49.12.49.35a.48.48,0,0,1-.06.21l-.14.27c-.05.11-.1.25-.17.42a4,4,0,0,0-.18.64c0,.3-.09.63-.12,1s-.06.7-.08,1.06l0,1c0,.34,0,.64,0,.89l.41,0h.41a.66.66,0,0,1,.31.06c.07,0,.11.15.11.31a1.83,1.83,0,0,1-.15.61q-.15.39-.45.39l-.17,0-.23,0q-.24,0-.24.3l-.05,4.91a1.41,1.41,0,0,1-.07.36,2.5,2.5,0,0,1-.16.43,1.13,1.13,0,0,1-.24.36.4.4,0,0,1-.31.15.67.67,0,0,1-.48-.13.73.73,0,0,1-.17-.52l-.24-5.81c-.45,0-1,0-1.66,0l-2,.08c-.67,0-1.28.08-1.84.14a7.55,7.55,0,0,0-1.18.19,1.56,1.56,0,0,0-.1.46,4.07,4.07,0,0,0,0,.46v4.24C354.21,567.88,353.84,568.27,353.09,568.27Z"/><path class="cls-4" d="M376.33,560.59a.51.51,0,0,1-.14.24,2.15,2.15,0,0,1-.34.33,3.1,3.1,0,0,1-.38.3.59.59,0,0,1-.31.13c-.75.07-1.45.1-2.09.11l-1.7,0a7.28,7.28,0,0,0,1.17,4.5,4.43,4.43,0,0,0,3.74,1.51,1.7,1.7,0,0,1,.73.1c.13.06.19.21.19.42s-.12.27-.37.4a3.11,3.11,0,0,1-1.32.2,8.09,8.09,0,0,1-2.42-.31,5.23,5.23,0,0,1-1.67-.84,3.91,3.91,0,0,1-1.06-1.21,5.82,5.82,0,0,1-.59-1.44,8.11,8.11,0,0,1-.25-1.54c0-.51,0-1,0-1.47a16.35,16.35,0,0,1,.46-4.17,8.39,8.39,0,0,1,1.21-2.72,4.34,4.34,0,0,1,1.73-1.47,5,5,0,0,1,2-.44,4.34,4.34,0,0,1,1.42.16.59.59,0,0,1,.37.59c0,.37-.16.55-.47.55h-1.47a2.75,2.75,0,0,0-1.16.25,2.34,2.34,0,0,0-1,.93,6.5,6.5,0,0,0-.79,1.89,14.27,14.27,0,0,0-.42,3.06,2,2,0,0,1,.47-.29,1.8,1.8,0,0,1,.65-.11h3.36Q376.33,560.29,376.33,560.59Z"/><path class="cls-4" d="M382.62,558.16c0-.31,0-.62,0-.93a1.84,1.84,0,0,0-.34-1.23,2,2,0,0,0-.75-.53l-.75-.29a.45.45,0,0,1-.33-.45c0-.11.09-.24.27-.37l.9-.72a1,1,0,0,1,.33-.23.91.91,0,0,1,.27,0,.49.49,0,0,1,.28.09,1.52,1.52,0,0,1,.34.34q1.44,1.71,3,3.44c1,1.14,1.95,2.19,2.83,3.14s1.63,1.75,2.27,2.42,1.07,1.09,1.3,1.29c.14-.85.23-1.66.29-2.43s.09-1.57.09-2.38a16.38,16.38,0,0,0-.08-1.69c0-.49-.1-.89-.15-1.23s-.1-.6-.15-.79a2,2,0,0,1-.07-.48.52.52,0,0,1,.21-.36,1.5,1.5,0,0,1,.46-.21,3.7,3.7,0,0,1,.58-.1l.55,0a.5.5,0,0,1,.47.22,1,1,0,0,1,.12.48,4.52,4.52,0,0,1-.12.82c-.08.39-.18.9-.28,1.55s-.19,1.46-.27,2.43-.12,2.14-.12,3.5c0,.42,0,.87,0,1.34s0,1,0,1.51a.9.9,0,0,1-.23.53,3.64,3.64,0,0,1-.51.53,4.53,4.53,0,0,1-.56.4,1.08,1.08,0,0,1-.38.16c-.08,0-.15-.09-.21-.28s-.13-.41-.21-.7a6.78,6.78,0,0,0-.36-.94,4.51,4.51,0,0,0-.69-1c-.64-.76-1.31-1.52-2-2.26l-2-2.07-1.64-1.7c-.49-.5-.86-.89-1.11-1.18,0,.7-.1,1.42-.13,2.16s-.05,1.46-.06,2.16,0,1.35,0,2,0,1.11,0,1.53,0,.73,0,1.11,0,.66,0,.86a1,1,0,0,1-.09.41.48.48,0,0,1-.36.29l-.91.22a2.45,2.45,0,0,1-.58.08c-.32,0-.48-.12-.48-.35a.7.7,0,0,1,.13-.39,5.3,5.3,0,0,0,.28-.47,4,4,0,0,0,.32-.76,5.83,5.83,0,0,0,.2-1.23l.29-6.15C382.6,558.78,382.61,558.47,382.62,558.16Z"/><path class="cls-4" d="M398.75,555.8a3.75,3.75,0,0,1-.48,0,.48.48,0,0,1-.45-.31,1.46,1.46,0,0,1-.15-.64.77.77,0,0,1,.26-.47.76.76,0,0,1,.49-.28l.65,0,.91.06,1.28.08c.5,0,1.1,0,1.79,0,.92,0,1.83,0,2.75-.1s1.83-.1,2.74-.1c.25,0,.37.12.37.35a.48.48,0,0,1-.11.27,2.46,2.46,0,0,1-.27.33,1.69,1.69,0,0,1-.36.3,1.15,1.15,0,0,1-.38.15c-.25,0-.53.06-.86.07l-1,.06-1,0h-.79c-.09.48-.16,1-.21,1.58s-.11,1.23-.15,2-.08,1.56-.1,2.48,0,2,0,3.16a3,3,0,0,0,.1.78,1.83,1.83,0,0,0,.34.7,1.61,1.61,0,0,0,.65.51,2.64,2.64,0,0,0,1.08.2,2.53,2.53,0,0,0,.43,0l.39,0a.19.19,0,0,1,.21.18,1.48,1.48,0,0,1,0,.34.74.74,0,0,1-.22.57,3.15,3.15,0,0,1-.76.38,2.82,2.82,0,0,1-.86.17,3.18,3.18,0,0,1-1.34-.27,3.37,3.37,0,0,1-1-.72,3.24,3.24,0,0,1-.65-.94,2.37,2.37,0,0,1-.22-1,4.58,4.58,0,0,1,.06-.65c0-.27.08-.61.13-1.05s.08-1,.12-1.59.06-1.39.06-2.27,0-1.48,0-2.2-.07-1.44-.15-2.19h-2.84Z"/><path class="cls-4" d="M413,558.5c0-.5,0-1,0-1.4a4.62,4.62,0,0,0,0-.58.71.71,0,0,0-.17-.42,1.72,1.72,0,0,1-.34-.48,1,1,0,0,1-.08-.41.81.81,0,0,1,.22-.43,4.25,4.25,0,0,1,.52-.52,5.82,5.82,0,0,1,.61-.44,1.09,1.09,0,0,1,.49-.18,1.23,1.23,0,0,1,.62.21c.24.14.35.26.35.36a1.68,1.68,0,0,1-.11.61,3,3,0,0,0-.14.74c-.06.73-.12,2-.16,3.67s-.06,4.08-.06,7.07a6.4,6.4,0,0,1-.19,2,.64.64,0,0,1-.61.49.75.75,0,0,1-.31-.06.58.58,0,0,1-.24-.31,3.58,3.58,0,0,1-.16-.77c0-.33-.07-.81-.09-1.42s0-1.37,0-2.29,0-2,0-3.35Q413.05,559.25,413,558.5Z"/><path class="cls-4" d="M421,559.12a8.17,8.17,0,0,1,1.08-2.3,6.44,6.44,0,0,1,1.54-1.58,8.61,8.61,0,0,1,1.78-1,8.46,8.46,0,0,1,1.81-.5,10.57,10.57,0,0,1,1.58-.13,2.85,2.85,0,0,1,1.62.39c.38.27.58.53.58.78a.66.66,0,0,1-.15.36,2.33,2.33,0,0,1-.37.41,2.73,2.73,0,0,1-.44.34.84.84,0,0,1-.39.13.36.36,0,0,1-.29-.17c-.09-.12-.2-.25-.32-.39a2.17,2.17,0,0,0-.46-.38,1.23,1.23,0,0,0-.68-.18,5,5,0,0,0-2.08.41,5.3,5.3,0,0,0-2.55,2.48,9.53,9.53,0,0,0-.63,1.57,10.15,10.15,0,0,0-.31,1.44,8.09,8.09,0,0,0-.09,1,5.09,5.09,0,0,0,.32,1.64,6.61,6.61,0,0,0,.88,1.71,5.29,5.29,0,0,0,1.38,1.33,3.16,3.16,0,0,0,1.79.53,4.08,4.08,0,0,0,1.63-.31,7.56,7.56,0,0,0,1.3-.7c.37-.25.69-.49,1-.69a1.13,1.13,0,0,1,.62-.31.48.48,0,0,1,.39.15.51.51,0,0,1,.13.37.67.67,0,0,1-.16.33,4.57,4.57,0,0,1-.45.54c-.19.2-.4.4-.64.61a4.6,4.6,0,0,1-.79.54,4,4,0,0,1-.67.29,7.44,7.44,0,0,1-.93.23c-.33.07-.68.12-1,.16a7.82,7.82,0,0,1-1.05.07,5.29,5.29,0,0,1-1.62-.3,5.11,5.11,0,0,1-1.75-1,5.87,5.87,0,0,1-1.38-1.87,6.55,6.55,0,0,1-.56-2.88A11,11,0,0,1,421,559.12Z"/><line class="cls-5" x1="96.17" x2="96.17" y2="64.11"/><line class="cls-5" y1="96.17" x2="64.11" y2="96.17"/><line class="cls-5" y1="573.83" x2="64.11" y2="573.83"/><line class="cls-5" x1="96.17" y1="670" x2="96.17" y2="605.89"/><line class="cls-5" x1="502.8" x2="502.8" y2="64.11"/><line class="cls-5" x1="598.97" y1="96.17" x2="534.85" y2="96.17"/><line class="cls-5" x1="598.97" y1="573.83" x2="534.85" y2="573.83"/><line class="cls-5" x1="502.8" y1="670" x2="502.8" y2="605.89"/></g></g></svg>